<svg xmlns="http://www.w3.org/2000/svg" viewBox="0 0 942.6 75"><path d="M45.5 73.6H14.1v-2.7l5.4-.8c2.8-.4 3.1-.5 3.1-2.2V5.5l-9.6.4c-3.6 0-4.7 1.4-6.3 4.5l-3.6 7.9H.3l2.1-16h54.4L59 18.4h-2.8l-3.8-7.9c-1.6-3.3-2.6-4.4-6.3-4.5l-9.7-.4v62.3c0 1.7.4 1.9 3.1 2.2l6 .8v2.7zM88.8 73.6h-27v-2.4l3.7-.7c2.4-.5 2.8-.5 2.8-2V16.2c0-1.6-.3-1.6-2.8-2.1l-3.7-.7v-2.5h27v2.5l-6 .7c-2.2.2-2.5.4-2.5 2.1v23.3h24V16.2c0-1.6-.2-1.8-2.5-2.1l-5.9-.7v-2.5h26.9v2.5l-3.7.7c-2.4.3-2.8.4-2.8 2.1v52.2c0 1.5.3 1.5 2.8 2l3.7.7v2.4h-27v-2.4l5.9-.7c2.2-.4 2.5-.5 2.5-2V42.6h-24v25.8c0 1.5.4 1.6 2.5 2l6 .7.1 2.5zM171.1 73.6h-44.6v-2.4l3.7-.7c2.3-.5 2.8-.5 2.8-2V16.2c0-1.6-.4-1.6-2.8-2.1l-3.7-.7v-2.5h43.1l3.1 13.9h-2.2l-3.8-6.3c-1.7-2.7-2.2-3.4-5.5-3.6L145 13.7v26.1l14.3-.5c2.3 0 2.9 0 3.7-2.7l1.7-6.3h2.4v22l-2.3.1-1.7-6.3c-.9-2.8-1.4-2.9-4-3l-14.1-.4V71l16.5-1.2c2.8.2 5.4-1.4 6.5-4l4.1-8.3h2.3l-3.3 16.1zM225.6 0c5.9-.2 11.9 1.2 17 4.2l1.6 14.3h-2.8c-2.8-8.8-7.3-14.9-15.9-14.9-5.9-.5-11.1 4-11.6 9.9v1.3c0 17 32 15.3 32 39.1 0 11.4-7.6 21-26 21-6 .1-12-.9-17.6-3.1l-2.6-16.9h2.7c3.3 9.6 8.3 16.5 18.3 16.5 7.7 0 12.7-4.3 12.7-12.1 0-18.8-31-16.3-31-39.3 0-12.3 9-20 23.2-20zM259.8 73.6h-15.7v-2.4l2.1-.6c3.1-1 3.5-1.2 4.2-3.6l20.1-57.1h2.3l21.7 57.7c.4 1.7 1.9 3 3.6 3.1l2.3.5v2.4h-24.8v-2.4l4.4-.5c2.6-.2 2.7-1.3 2-3.1l-5.9-15.7h-17l-4.9 15.4c-.4 1.6-.6 2.5 2.3 3.1l3.1.7.2 2.5zm7.4-46.5l-6.9 21.8h15.1l-8.2-21.8zM344.3 13.5l1.4 14.8h-2.2c-3.4-11.5-9.1-16.1-17-16.1-10.5 0-19.1 9-19.1 27.5 0 21.7 9.4 32.1 20 32.1 7.1 0 12.8-4.7 16.2-16.1h2.2l-1.5 14.7c-5.1 3.1-11 4.7-17 4.6-17.3.6-31.7-12.9-32.3-30.2v-2c0-18.5 13.5-34 31.9-34 6.1-.2 12.2 1.4 17.4 4.7zM375.2 73.6H349v-2.4l3.8-.7c2.3-.5 2.8-.5 2.8-2V16.2c0-1.6-.4-1.6-2.8-2.1l-3.8-.7v-2.5h26.3c11 0 20.3 4.1 20.3 15.3 0 8.3-5.2 13.3-12.5 15.7l12.5 22.9c1.2 3.2 4 5.6 7.4 6.3v2.4h-15.4l-16.3-30h-3.6v24.8c0 1.5.2 1.6 2.5 2l5.2.7-.2 2.6zm-7.5-60.1V41h.4c11.5 0 15.7-4.3 15.7-14.2s-4.2-13.4-9.9-13.4l-6.2.1zM421.1 73.6h-15.8v-2.4l2.1-.6c3.1-1 3.5-1.2 4.3-3.6l20.2-57.1h2.3l21.7 57.7c.9 2.2 1.5 2.7 3.6 3.1l2.3.5v2.4H437v-2.4l4.4-.5c2.6-.2 2.7-1.3 2-3.1l-5.9-15.7h-16.9l-4.9 15.5c-.4 1.6-.6 2.5 2.3 3.1l3.1.7v2.4zm7.2-46.5l-6.8 21.8h15l-8.2-21.8zM482.7 73.6h-18v-2.2l3.4-.7c2.3-.4 2.8-.4 2.8-2l1.1-51.6c-1.1-2.8-3.4-3.1-7.2-3.4v-2.6h17.4l18 45.5 17.4-45.5h17.7v2.6c-3.9.2-5.8.6-7.2 3.4v51.6c0 1.5.4 1.6 2.6 2l4.2.7v2.2h-26.3v-2.2l4.8-.7c2.3-.3 2.8-.4 2.8-2v-45l-19.3 49.2h-2.2l-20.2-51.4 1 47.1c0 1.5.4 1.6 2.6 2l4.8.7-.2 2.3zM582.8 73.6h-44.6v-2.4l3.8-.7c2.3-.5 2.8-.5 2.8-2V16.2c0-1.6-.4-1.6-2.8-2.1l-3.8-.7v-2.5h43.1l3.1 13.9h-2.3l-3.9-6.3c-1.7-2.7-2.2-3.4-5.5-3.6l-16.2-1.2v26.1l14.3-.5c2.3 0 2.9 0 3.7-2.7l1.7-6.3h2.4v21.9l-2.3.1-1.7-6.3c-.9-2.8-1.4-2.9-4-3l-14.1-.5v28.3l16.5-1.2c2.8.2 5.4-1.5 6.5-4.1l4.1-8.3h2.3l-3.1 16.4zM605.6 73.6h-19.7v-2.4l4.2-.7c2.4-.5 2.8-.5 2.8-2l1.1-50.6-.2-.4c-1.8-2.5-4.8-3.9-7.8-3.7V11h17.3l32.1 43-1.1-37.7c0-1.6-.3-1.8-2.6-2.1l-5.1-.7V11H646v2.5l-4 .6c-2.4.3-2.8.5-2.8 2.2L638 73.6h-2.6l-38.6-52 1.1 46.7c0 1.5.2 1.6 2.5 2l5 .7v2.6zM687.9 73.6h-27.6v-2.3l4.8-.7c2.4-.3 2.8-.4 2.8-2v-55l-8.4.4c-3.1 0-4.2 1.2-5.5 4l-3.5 7.1H648l1.8-14.1h47.9l1.9 14.1h-2.4l-3.4-7c-1.4-2.9-2.2-3.9-5.5-4l-8.5-.4v54.7c0 1.5.4 1.7 2.6 2l5.3.7.2 2.5zM761 40.8c0 18.8-13.5 33.9-30.7 33.9-17.4.1-31.7-14-31.7-31.4v-.6c0-18.5 13.4-34 31.2-34 17.3.1 31.3 14.2 31.2 31.5v.6zm-50.3-1.6c0 22 8.5 32.3 19.8 32.3 10.5 0 17.9-7.3 17.9-29.9 0-21.6-10.1-29.7-19.6-29.7-10.4.1-18 8.8-18 27.4l-.1-.1zM787.5 70.8l4.2-.8c2.7-.5 3.1-.5 3.1-2.2V8.4c0-1.9-.5-1.9-3.1-2.4l-4.2-.8V2.3h28.3c13.8 0 23.4 4.1 23.4 15.7 0 8.5-5.6 13.5-14.8 15.5 12.5 1.3 19.7 8.6 19.7 19.4 0 13.8-11.6 20.8-26.1 20.8h-30.5v-2.9zm20.9-65.5V33h5.4c8.1 0 11.7-4.4 11.7-14.4s-4.6-13.3-11.8-13.3h-5.3zm0 30.5v34.8h8.2c9.1 0 13.3-7 13.3-17.6 0-11.3-4.8-17.2-15.5-17.2h-6zM888.9 73.6h-44.6v-2.4l3.7-.7c2.3-.5 2.8-.5 2.8-2V16.2c0-1.6-.4-1.6-2.8-2.1l-3.7-.7v-2.5h43.2l3.1 13.9h-2.2l-3.9-6.3c-1.6-2.7-2.2-3.4-5.5-3.6l-16.2-1.2v26.1l14.3-.5c2.3 0 2.9 0 3.7-2.7l1.7-6.3h2.4v21.9l-2.3.1-1.7-6.3c-.9-2.8-1.4-2.9-4-3l-14.1-.5v28.3l16.7-1.2c2.8.2 5.4-1.5 6.5-4.1l4.1-8.3h2.3l-3.5 16.4zM938.9 73.6h-44.6v-2.4l3.8-.7c2.3-.5 2.8-.5 2.8-2V16.2c0-1.6-.4-1.6-2.8-2.1l-3.8-.7v-2.5h43.2l3.1 13.9h-2.2l-3.9-6.3c-1.7-2.7-2.2-3.4-5.5-3.6l-16.2-1.2v26.1l14.3-.5c2.3 0 2.9 0 3.7-2.7l1.7-6.3h2.4v21.9l-2.3.1-1.7-6.3c-.9-2.8-1.4-2.9-4-3l-14.1-.5v28.3l16.5-1.2c2.9.3 5.6-1.4 6.7-4.1l4.1-8.3h2.2l-3.4 16.4z"/></svg>