<svg xmlns="http://www.w3.org/2000/svg" viewBox="365.35 529.25 58.70 5.20"><path d="M 374.0,534.3 L 371.5,534.3 L 371.5,534.1 L 371.7,534.1 C 371.8,534.1 371.9,534.0 371.9,533.8 L 371.9,529.9 C 371.9,529.7 371.8,529.6 371.7,529.6 L 371.5,529.6 L 371.5,529.4 L 374.0,529.4 L 374.0,531.1 L 373.9,531.1 L 373.9,531.1 C 373.9,530.1 373.6,529.6 373.0,529.6 L 372.6,529.6 L 372.6,531.6 L 372.7,531.6 C 373.0,531.6 373.2,531.3 373.2,530.7 L 373.2,530.7 L 373.3,530.7 L 373.3,532.8 L 373.2,532.8 L 373.2,532.8 C 373.2,532.2 373.0,531.9 372.7,531.9 L 372.6,531.9 L 372.6,534.1 L 373.0,534.1 C 373.5,534.1 373.9,533.5 373.9,532.6 L 373.9,532.6 L 374.0,532.6 L 374.0,534.3 z"/><path d="M 371.4,534.3 L 369.9,534.3 L 369.9,534.1 L 370.0,534.1 C 370.2,534.1 370.3,534.0 370.3,533.8 L 370.3,531.9 L 369.2,531.9 L 369.2,533.8 C 369.2,534.0 369.3,534.1 369.5,534.1 L 369.6,534.1 L 369.6,534.3 L 368.2,534.3 L 368.2,534.1 L 368.3,534.1 C 368.4,534.1 368.6,534.0 368.6,533.8 L 368.6,529.9 C 368.6,529.7 368.4,529.6 368.3,529.6 L 368.2,529.6 L 368.2,529.4 L 369.6,529.4 L 369.6,529.6 L 369.5,529.6 C 369.3,529.6 369.2,529.7 369.2,529.9 L 369.2,531.6 L 370.3,531.6 L 370.3,529.9 C 370.3,529.7 370.2,529.6 370.0,529.6 L 369.9,529.6 L 369.9,529.4 L 371.4,529.4 L 371.4,529.6 L 371.2,529.6 C 371.1,529.6 371.0,529.7 371.0,529.9 L 371.0,533.8 C 371.0,534.0 371.1,534.1 371.2,534.1 L 371.4,534.1 L 371.4,534.3 z"/><path d="M 368.1,531.1 L 367.9,531.1 L 367.9,531.1 C 367.9,530.3 367.6,529.6 367.3,529.6 L 367.1,529.6 L 367.1,533.8 C 367.1,534.0 367.2,534.1 367.4,534.1 L 367.5,534.1 L 367.5,534.3 L 366.0,534.3 L 366.0,534.1 L 366.2,534.1 C 366.3,534.1 366.4,534.0 366.4,533.8 L 366.4,529.6 L 366.3,529.6 C 366.0,529.6 365.7,530.2 365.7,531.1 L 365.7,531.1 L 365.5,531.1 L 365.5,529.4 L 368.1,529.4 L 368.1,531.1 z"/><path d="M 386.5,534.3 L 384.0,534.3 L 384.0,534.1 L 384.2,534.1 C 384.3,534.1 384.4,534.0 384.4,533.8 L 384.4,529.9 C 384.4,529.7 384.3,529.6 384.2,529.6 L 384.0,529.6 L 384.0,529.4 L 385.5,529.4 L 385.5,529.6 L 385.4,529.6 C 385.2,529.6 385.1,529.7 385.1,529.9 L 385.1,534.1 L 385.5,534.1 C 386.1,534.1 386.3,533.3 386.3,532.6 L 386.3,532.6 L 386.5,532.6 L 386.5,534.3 z"/><path d="M 383.9,534.3 L 381.5,534.3 L 381.6,534.1 L 381.6,534.1 C 381.8,534.1 381.9,534.0 381.9,533.8 L 381.9,529.9 C 381.9,529.7 381.8,529.6 381.6,529.6 L 381.5,529.6 L 381.5,529.4 L 383.0,529.4 L 383.0,529.6 L 382.8,529.6 C 382.7,529.6 382.6,529.7 382.6,529.9 L 382.6,534.1 L 382.9,534.1 C 383.6,534.1 383.8,533.3 383.8,532.6 L 383.8,532.6 L 383.9,532.6 L 383.9,534.3 z"/><path d="M 379.5,529.6 L 379.5,529.6 C 379.2,529.6 379.1,529.6 379.0,530.0 L 378.1,534.3 L 377.8,534.3 L 377.3,531.5 L 377.3,531.5 L 376.7,534.3 L 376.4,534.3 L 375.6,529.9 C 375.5,529.6 375.4,529.6 375.2,529.6 L 375.2,529.6 L 375.2,529.4 L 376.5,529.4 L 376.5,529.6 L 376.5,529.6 C 376.3,529.6 376.2,529.7 376.2,529.8 C 376.2,529.8 376.2,529.9 376.2,529.9 L 376.8,532.9 L 376.8,532.9 L 377.2,530.9 L 377.0,529.9 C 376.9,529.7 376.9,529.6 376.7,529.6 L 376.6,529.6 L 376.6,529.4 L 377.9,529.4 L 377.9,529.6 L 377.9,529.6 C 377.7,529.6 377.6,529.7 377.6,529.8 C 377.6,529.9 377.6,529.9 377.6,530.0 L 378.2,532.8 L 378.2,532.8 L 378.7,530.0 C 378.8,529.9 378.8,529.9 378.8,529.9 C 378.8,529.7 378.7,529.6 378.4,529.6 L 378.4,529.6 L 378.4,529.4 L 379.5,529.4 L 379.5,529.6 z"/><path d="M 381.6,534.3 L 380.2,534.3 L 380.2,534.1 L 380.2,534.1 C 380.5,534.1 380.6,534.0 380.6,533.9 C 380.6,533.9 380.5,533.8 380.5,533.7 L 380.4,533.1 L 379.6,533.1 L 379.5,533.7 C 379.5,533.8 379.5,533.9 379.5,533.9 C 379.5,534.0 379.5,534.1 379.8,534.1 L 379.8,534.1 L 379.8,534.3 L 378.7,534.3 L 378.7,534.1 L 378.8,534.1 C 379.0,534.1 379.1,534.1 379.2,533.8 L 380.0,529.4 L 380.4,529.4 L 381.2,533.7 C 381.3,534.0 381.4,534.1 381.5,534.1 L 381.6,534.1 L 381.6,534.3 z M 380.4,532.9 L 380.0,530.7 L 380.0,530.7 L 379.6,532.9 L 380.4,532.9 z"/><path d="M 403.8,531.1 L 403.6,531.1 L 403.6,531.1 C 403.6,530.3 403.3,529.6 403.0,529.6 L 402.8,529.6 L 402.8,533.8 C 402.8,534.0 402.9,534.1 403.1,534.1 L 403.2,534.1 L 403.2,534.3 L 401.7,534.3 L 401.7,534.1 L 401.9,534.1 C 402.0,534.1 402.1,534.0 402.1,533.8 L 402.1,529.6 L 402.0,529.6 C 401.7,529.6 401.4,530.2 401.4,531.1 L 401.4,531.1 L 401.2,531.1 L 401.2,529.4 L 403.8,529.4 L 403.8,531.1 z"/><path d="M 401.0,534.3 L 398.5,534.3 L 398.5,534.1 L 398.6,534.1 C 398.8,534.1 398.9,534.0 398.9,533.8 L 398.9,529.9 C 398.9,529.7 398.8,529.6 398.6,529.6 L 398.5,529.6 L 398.5,529.4 L 401.0,529.4 L 401.0,531.1 L 400.8,531.1 L 400.8,531.1 C 400.8,530.1 400.5,529.6 400.0,529.6 L 399.6,529.6 L 399.6,531.6 L 399.7,531.6 C 400.0,531.6 400.1,531.3 400.1,530.7 L 400.1,530.7 L 400.3,530.7 L 400.3,532.8 L 400.1,532.8 L 400.1,532.8 C 400.1,532.2 400.0,531.9 399.7,531.9 L 399.6,531.9 L 399.6,534.1 L 399.9,534.1 C 400.5,534.1 400.8,533.5 400.8,532.6 L 400.8,532.6 L 401.0,532.6 L 401.0,534.3 z"/><path d="M 398.3,534.3 L 395.8,534.3 L 395.8,534.1 L 396.0,534.1 C 396.1,534.1 396.2,534.0 396.2,533.8 L 396.2,529.9 C 396.2,529.7 396.1,529.6 396.0,529.6 L 395.8,529.6 L 395.8,529.4 L 398.3,529.4 L 398.3,531.1 L 398.2,531.1 L 398.2,531.1 C 398.2,530.1 397.9,529.6 397.3,529.6 L 396.9,529.6 L 396.9,531.6 L 397.0,531.6 C 397.3,531.6 397.5,531.3 397.5,530.7 L 397.5,530.7 L 397.6,530.7 L 397.6,532.8 L 397.5,532.8 L 397.5,532.8 C 397.5,532.2 397.3,531.9 397.0,531.9 L 396.9,531.9 L 396.9,534.1 L 397.3,534.1 C 397.8,534.1 398.2,533.5 398.2,532.6 L 398.2,532.6 L 398.3,532.6 L 398.3,534.3 z"/><path d="M 392.7,531.1 L 392.5,531.1 L 392.5,531.1 C 392.5,530.3 392.2,529.6 391.9,529.6 L 391.7,529.6 L 391.7,533.8 C 391.7,534.0 391.8,534.1 392.0,534.1 L 392.1,534.1 L 392.1,534.3 L 390.6,534.3 L 390.6,534.1 L 390.8,534.1 C 391.0,534.1 391.1,534.0 391.1,533.8 L 391.1,529.6 L 390.9,529.6 C 390.6,529.6 390.3,530.2 390.3,531.1 L 390.3,531.1 L 390.1,531.1 L 390.1,529.4 L 392.7,529.4 L 392.7,531.1 z"/><path d="M 390.1,533.1 C 390.1,534.0 389.6,534.3 389.0,534.3 C 388.5,534.3 388.3,534.2 388.1,534.0 L 388.0,534.3 L 387.9,534.3 L 387.9,532.6 L 388.0,532.6 L 388.0,532.7 C 388.0,533.8 388.6,534.1 388.9,534.1 C 389.4,534.1 389.6,533.8 389.6,533.3 C 389.6,532.8 389.2,532.4 388.7,532.0 C 388.3,531.6 387.8,531.2 387.8,530.5 C 387.8,529.8 388.3,529.4 388.8,529.4 C 389.3,529.4 389.5,529.6 389.6,529.7 L 389.7,529.4 L 389.8,529.4 L 389.8,531.1 L 389.7,531.1 L 389.7,531.1 C 389.7,530.1 389.4,529.6 388.9,529.6 C 388.5,529.6 388.3,529.8 388.3,530.2 C 388.3,530.7 388.6,530.9 389.1,531.3 C 389.7,531.8 390.1,532.2 390.1,533.1"/><path d="M 395.8,533.6 C 395.8,534.0 395.6,534.3 395.2,534.3 C 394.8,534.3 394.7,534.0 394.6,533.4 L 394.6,532.5 C 394.6,532.0 394.4,531.9 394.1,531.9 L 393.9,531.9 L 393.9,533.8 C 393.9,534.0 394.0,534.1 394.2,534.1 L 394.3,534.1 L 394.3,534.3 L 392.8,534.3 L 392.8,534.1 L 393.0,534.1 C 393.2,534.1 393.3,534.0 393.3,533.8 L 393.3,529.9 C 393.3,529.7 393.2,529.6 393.0,529.6 L 392.8,529.6 L 392.8,529.4 L 394.2,529.4 C 395.0,529.4 395.5,529.8 395.5,530.6 C 395.5,531.4 394.9,531.7 394.4,531.8 L 394.4,531.8 C 394.8,531.9 395.2,532.2 395.2,532.6 L 395.3,533.7 C 395.3,533.9 395.3,534.0 395.4,534.0 C 395.6,534.0 395.6,533.9 395.6,533.5 L 395.6,533.4 L 395.8,533.4 L 395.8,533.6 z M 394.8,530.6 C 394.8,529.8 394.5,529.6 394.1,529.6 L 393.9,529.6 L 393.9,531.7 L 394.1,531.7 C 394.5,531.7 394.8,531.4 394.8,530.6"/><path d="M 423.1,534.3 L 420.6,534.3 L 420.7,534.1 L 420.8,534.1 C 420.9,534.1 421.0,534.0 421.0,533.8 L 421.0,529.9 C 421.0,529.7 420.9,529.6 420.8,529.6 L 420.6,529.6 L 420.6,529.4 L 422.1,529.4 L 422.1,529.6 L 422.0,529.6 C 421.8,529.6 421.7,529.7 421.7,529.9 L 421.7,534.1 L 422.1,534.1 C 422.7,534.1 422.9,533.3 422.9,532.6 L 422.9,532.6 L 423.1,532.6 L 423.1,534.3 z"/><path d="M 423.9,534.0 C 423.9,534.2 423.8,534.3 423.6,534.3 C 423.5,534.3 423.4,534.2 423.4,534.0 C 423.4,533.8 423.5,533.7 423.6,533.7 C 423.8,533.7 423.9,533.8 423.9,534.0"/><path d="M 418.1,529.6 L 418.0,529.6 C 417.9,529.6 417.7,529.7 417.7,529.9 L 417.7,534.3 L 417.5,534.3 L 416.0,530.5 L 416.0,530.5 L 416.0,533.7 C 416.0,534.0 416.1,534.1 416.2,534.1 L 416.4,534.1 L 416.4,534.3 L 415.3,534.3 L 415.3,534.1 L 415.5,534.1 C 415.6,534.1 415.7,534.0 415.7,533.7 L 415.7,529.9 C 415.7,529.7 415.7,529.6 415.5,529.6 L 415.3,529.6 L 415.3,529.4 L 416.3,529.4 L 417.5,532.5 L 417.5,532.5 L 417.5,529.9 C 417.5,529.7 417.4,529.6 417.2,529.6 L 417.1,529.6 L 417.1,529.4 L 418.1,529.4 L 418.1,529.6 z"/><path d="M 412.5,529.6 L 412.3,529.6 C 412.1,529.6 412.0,529.7 412.0,529.9 L 412.0,533.2 C 412.0,533.8 411.8,534.3 411.1,534.3 C 410.4,534.3 409.9,533.9 409.9,533.2 L 409.9,529.9 C 409.9,529.7 409.8,529.6 409.7,529.6 L 409.5,529.6 L 409.5,529.4 L 411.0,529.4 L 411.0,529.6 L 410.9,529.6 C 410.7,529.6 410.6,529.7 410.6,529.9 L 410.6,533.2 C 410.6,533.8 410.8,534.1 411.2,534.1 C 411.6,534.1 411.8,533.8 411.8,533.2 L 411.8,529.9 C 411.8,529.7 411.7,529.6 411.6,529.6 L 411.4,529.6 L 411.4,529.4 L 412.5,529.4 L 412.5,529.6 z"/><path d="M 407.0,529.6 L 406.9,529.6 C 406.7,529.6 406.6,529.7 406.6,529.9 L 406.6,533.3 C 406.6,534.0 406.1,534.3 405.5,534.3 C 405.1,534.3 404.6,534.0 404.6,533.3 C 404.6,532.9 404.9,532.7 405.0,532.7 C 405.2,532.7 405.4,532.9 405.4,533.1 C 405.4,533.4 405.2,533.5 405.0,533.6 C 405.0,533.8 405.2,534.1 405.5,534.1 C 405.8,534.1 405.9,533.9 405.9,533.4 L 405.9,529.9 C 405.9,529.7 405.8,529.6 405.7,529.6 L 405.5,529.6 L 405.5,529.4 L 407.0,529.4 L 407.0,529.6 z"/><path d="M 420.7,534.3 L 419.3,534.3 L 419.3,534.1 L 419.4,534.1 C 419.6,534.1 419.7,534.0 419.7,533.9 C 419.7,533.9 419.7,533.8 419.7,533.7 L 419.6,533.1 L 418.7,533.1 L 418.6,533.7 C 418.6,533.8 418.6,533.9 418.6,533.9 C 418.6,534.0 418.7,534.1 418.9,534.1 L 418.9,534.1 L 418.9,534.3 L 417.9,534.3 L 417.9,534.1 L 417.9,534.1 C 418.2,534.1 418.3,534.1 418.3,533.8 L 419.2,529.4 L 419.5,529.4 L 420.4,533.7 C 420.4,534.0 420.6,534.1 420.7,534.1 L 420.7,534.1 L 420.7,534.3 z M 419.5,532.9 L 419.2,530.7 L 419.1,530.7 L 418.8,532.9 L 419.5,532.9 z"/><path d="M 415.3,533.6 C 415.3,534.0 415.2,534.3 414.8,534.3 C 414.4,534.3 414.2,534.0 414.2,533.4 L 414.1,532.5 C 414.1,532.0 413.9,531.9 413.6,531.9 L 413.5,531.9 L 413.5,533.8 C 413.5,534.0 413.5,534.1 413.7,534.1 L 413.9,534.1 L 413.9,534.3 L 412.4,534.3 L 412.4,534.1 L 412.5,534.1 C 412.7,534.1 412.8,534.0 412.8,533.8 L 412.8,529.9 C 412.8,529.7 412.7,529.6 412.5,529.6 L 412.4,529.6 L 412.4,529.4 L 413.7,529.4 C 414.5,529.4 415.0,529.8 415.0,530.6 C 415.0,531.4 414.5,531.7 414.0,531.8 L 414.0,531.8 C 414.4,531.9 414.7,532.2 414.8,532.6 L 414.8,533.7 C 414.8,533.9 414.9,534.0 415.0,534.0 C 415.1,534.0 415.1,533.9 415.1,533.5 L 415.1,533.4 L 415.3,533.4 L 415.3,533.6 z M 414.3,530.6 C 414.3,529.8 414.0,529.6 413.6,529.6 L 413.5,529.6 L 413.5,531.7 L 413.6,531.7 C 414.1,531.7 414.3,531.4 414.3,530.6"/><path d="M 409.5,531.8 C 409.5,533.2 409.1,534.3 408.2,534.3 C 407.4,534.3 407.0,533.2 407.0,531.8 C 407.0,530.4 407.4,529.4 408.2,529.4 C 409.1,529.4 409.5,530.4 409.5,531.8 z M 408.8,533.0 L 408.8,530.7 C 408.8,529.8 408.6,529.6 408.2,529.6 C 407.9,529.6 407.7,529.8 407.7,530.7 L 407.7,533.0 C 407.7,533.8 407.9,534.1 408.2,534.1 C 408.6,534.1 408.8,533.8 408.8,533.0"/></svg>